# xmcd
#
# Track frame offsets:
#	150
#	45042
#	86285
#	99848
#	136230
#	168076
#	212382
#	250271
#	281632
#
# Disc length: 4410 seconds
#
# Revision: 0
# Processed by: cddbd v1.5.2PL0 Copyright (c) Steve Scherf et al.
# Submitted via: audiograbber 1.83.01
#
DISCID=61113809
DTITLE=Np Trouble - Listen
DYEAR=1998
DGENRE=Blues
TTITLE0=was denn
TTITLE1=in the dark
TTITLE2=erzähl mir
TTITLE3=kalimba
TTITLE4=data gehn
TTITLE5=november
TTITLE6=ulli im gulli
TTITLE7=out of control
TTITLE8=dreams
EXTD=
EXTT0=
EXTT1=
EXTT2=
EXTT3=
EXTT4=
EXTT5=
EXTT6=
EXTT7=
EXTT8=
PLAYORDER=
